# Blender v2.91.0 OBJ File: ''
# www.blender.org
mtllib BG.mtl
o Plane
v -1.000000 -0.494104 8.862638
v 9.994164 -0.494104 8.862638
v -1.000000 6.440677 -0.300803
v 9.994164 6.440677 -0.300803
v -1.000000 -0.104825 -0.164075
v 9.994164 -0.104825 -0.164075
v -1.000000 -0.500000 0.430110
v 9.994164 -0.500000 0.430110
v 9.994164 0.691420 -0.305361
v -1.000000 0.691420 -0.305361
v 9.994164 -0.400402 0.100268
v -1.000000 -0.400402 0.100268
v -1.000000 0.291019 -0.300803
v 9.994164 0.291019 -0.300803
v 9.994164 -0.257171 -0.054692
v -1.000000 -0.257171 -0.054692
v -1.000000 0.052078 -0.246112
v 9.994164 0.052078 -0.246112
v -1.000000 -0.494104 8.862638
v 9.994164 -0.494104 8.862638
v 9.994164 0.491219 -0.303082
v -1.000000 0.491219 -0.303082
v -1.000000 -0.497052 2.489083
v 9.994164 -0.497052 2.489083
v 9.994164 -0.498526 1.816833
v -1.000000 -0.498526 1.816833
v 9.994164 -0.499263 1.582775
v -1.000000 -0.499263 1.582775
v 9.994164 -0.499631 1.142533
v -1.000000 -0.499631 1.142533
v 9.994164 2.151620 -0.303082
v -1.000000 2.151620 -0.303082
v -1.000000 1.648337 -0.304222
v 9.994164 1.648337 -0.304222
v -1.000000 1.396695 -0.304791
v 9.994164 1.396695 -0.304791
v -1.000000 1.270875 -0.305076
v 9.994164 1.270875 -0.305076
v -1.000000 0.924443 -0.305218
v 9.994164 0.924443 -0.305218
v 9.994164 -0.499816 0.774981
v -1.000000 -0.499816 0.774981
v 9.994164 0.591320 -0.304221
v -1.000000 0.591320 -0.304221
v -1.000000 0.391119 -0.301943
v 9.994164 0.391119 -0.301943
v 9.994164 0.171548 -0.273458
v -1.000000 0.171548 -0.273458
v -1.000000 -0.026374 -0.205093
v 9.994164 -0.026374 -0.205093
v 9.994164 -0.180998 -0.109383
v -1.000000 -0.180998 -0.109383
v -1.000000 -0.328786 0.022788
v 9.994164 -0.328786 0.022788
v -1.000000 -0.450201 0.202814
v 9.994164 -0.450201 0.202814
vt 0.000000 0.875000
vt 1.000000 0.875000
vt 1.000000 1.000000
vt 0.000000 1.000000
vt 0.000000 0.468750
vt 1.000000 0.468750
vt 1.000000 0.500000
vt 0.000000 0.500000
vt 0.000000 0.242188
vt 1.000000 0.242188
vt 1.000000 0.250000
vt 0.000000 0.250000
vt 0.000000 0.718750
vt 1.000000 0.718750
vt 1.000000 0.750000
vt 0.000000 0.750000
vt 0.000000 0.312500
vt 1.000000 0.312500
vt 1.000000 0.375000
vt 0.000000 0.375000
vt 0.000000 0.593750
vt 1.000000 0.593750
vt 1.000000 0.625000
vt 0.000000 0.625000
vt 0.000000 0.406250
vt 1.000000 0.406250
vt 1.000000 0.437500
vt 0.000000 0.437500
vt 0.000000 0.531250
vt 1.000000 0.531250
vt 1.000000 0.562500
vt 0.000000 0.562500
vt 0.000000 0.656250
vt 1.000000 0.656250
vt 1.000000 0.687500
vt 0.000000 0.687500
vt 0.000000 0.000000
vt 1.000000 0.000000
vt 1.000000 0.125000
vt 0.000000 0.125000
vt 1.000000 0.187500
vt 0.000000 0.187500
vt 1.000000 0.218750
vt 0.000000 0.218750
vt 1.000000 0.234375
vt 0.000000 0.234375
vt 0.000000 0.812500
vt 1.000000 0.812500
vt 0.000000 0.781250
vt 1.000000 0.781250
vt 0.000000 0.765625
vt 1.000000 0.765625
vt 0.000000 0.757812
vt 1.000000 0.757812
vn 0.0000 -0.0014 1.0000
vn 0.0000 -0.0005 1.0000
vn 0.0000 0.5832 0.8123
vn 0.0000 0.5246 0.8513
vn 0.0000 1.0000 -0.0005
vn 0.0000 0.9942 0.1074
vn 0.0000 0.0114 0.9999
vn 0.0000 0.0054 1.0000
vn 0.0000 0.9448 0.3277
vn 0.0000 0.8258 0.5639
vn 0.0000 0.2231 0.9748
vn 0.0000 0.1179 0.9930
vn 0.0000 0.7343 0.6788
vn 0.0000 0.6622 0.7494
vn 0.0000 0.4633 0.8862
vn 0.0000 0.3460 0.9382
vn 0.0000 1.0000 -0.0013
vn 0.0000 1.0000 -0.0027
vn 0.0000 1.0000 -0.0020
vn 0.0000 1.0000 -0.0006
vn 0.0000 -0.0023 1.0000
vn 0.0000 -0.0013 1.0000
usemtl None
s 1
f 32/1/1 31/2/1 4/3/2 3/4/2
f 52/5/3 51/6/3 6/7/4 5/8/4
f 42/9/5 41/10/5 8/11/6 7/12/6
f 44/13/7 43/14/7 9/15/8 10/16/8
f 55/17/9 56/18/9 11/19/10 12/20/10
f 48/21/11 47/22/11 14/23/12 13/24/12
f 53/25/13 54/26/13 15/27/14 16/28/14
f 49/29/15 50/30/15 18/31/16 17/32/16
f 45/33/7 46/34/7 21/35/7 22/36/7
f 1/37/5 2/38/5 24/39/17 23/40/17
f 23/40/17 24/39/17 25/41/18 26/42/18
f 26/42/18 25/41/18 27/43/19 28/44/19
f 28/44/19 27/43/19 29/45/20 30/46/20
f 33/47/21 34/48/21 31/2/1 32/1/1
f 35/49/21 36/50/21 34/48/21 33/47/21
f 37/51/22 38/52/22 36/50/21 35/49/21
f 39/53/2 40/54/2 38/52/22 37/51/22
f 10/16/8 9/15/8 40/54/2 39/53/2
f 30/46/20 29/45/20 41/10/5 42/9/5
f 22/36/7 21/35/7 43/14/7 44/13/7
f 13/24/12 14/23/12 46/34/7 45/33/7
f 17/32/16 18/31/16 47/22/11 48/21/11
f 5/8/4 6/7/4 50/30/15 49/29/15
f 16/28/14 15/27/14 51/6/3 52/5/3
f 12/20/10 11/19/10 54/26/13 53/25/13
f 7/12/6 8/11/6 56/18/9 55/17/9
l 19 20
