# ProBuilder 4.5.0
# https://unity3d.com/unity/features/worldbuilding/probuilder
# 2021/06/11 11:51:45 AM

mtllib ./Building.mtl
o Building

g Building (4)
v -10.5 19.46539 -2.5
v -10.5 20 -2.5
v -10.5 20 0.5
v -10.5 19.46539 0.5
v -10.5 19.46539 -5
v -10.5 20 -5
v 0.5 19.46539 0.5
v 0.5 20 0.5
v 0.5 20 -2.5
v 0.5 19.46539 -2.5
v 0.5 20 -5
v 0.5 19.46539 -5
v -10.5 19.46539 -7.5
v -10.5 20 -7.5
v -10.5 19.46539 -10.5
v -10.5 20 -10.5
v 0.5 20 -7.5
v 0.5 19.46539 -7.5
v 0.5 20 -10.5
v 0.5 19.46539 -10.5
v -10 -90.1306 0
v -10 -90.1306 -2.5
v -10 2.5 -2.5
v -10 2.5 0
v -10 5 -2.5
v -10 5 0
v -10 -90.1306 -5
v -10 2.5 -5
v -9.641884 2.5 -5
v -9.641884 5 -5
v -9.641884 5 -2.5
v -9.641884 2.5 -2.5
v 0 -90.1306 0
v 0 2.5 0
v 0 2.5 -2.5
v 0 -90.1306 -2.5
v 0 5 0
v 0 5 -2.5
v 0 2.5 -5
v 0 -90.1306 -5
v 0 5 -5
v -10 -90.1306 -7.5
v -10 2.5 -7.5
v -10 5 -7.5
v -10 5 -5
v -10 -90.1306 -10
v -10 2.5 -10
v -9.641884 2.5 -10
v -9.641884 5 -10
v -9.641884 5 -7.5
v -9.641884 2.5 -7.5
v 0 2.5 -7.5
v 0 -90.1306 -7.5
v 0 5 -7.5
v 0 2.5 -10
v 0 -90.1306 -10
v 0 5 -10
v -10 7.5 -2.5
v -10 7.5 0
v -10 10 -2.5
v -10 10 0
v -10 7.5 -5
v -9.641884 7.5 -5
v -9.641884 10 -5
v -9.641884 10 -2.5
v -9.641884 7.5 -2.5
v 0 7.5 0
v 0 7.5 -2.5
v 0 10 0
v 0 10 -2.5
v 0 7.5 -5
v 0 10 -5
v -10 7.5 -7.5
v -10 10 -7.5
v -10 10 -5
v -10 5 -10
v -10 7.5 -10
v -9.641884 7.5 -10
v -9.641884 10 -10
v -9.641884 10 -7.5
v -9.641884 7.5 -7.5
v 0 7.5 -7.5
v 0 10 -7.5
v 0 7.5 -10
v 0 10 -10
v -10 12.5 -2.5
v -10 12.5 0
v -10 15 -2.5
v -10 15 0
v -10 12.5 -5
v -9.641884 12.5 -5
v -9.641884 15 -5
v -9.641884 15 -2.5
v -9.641884 12.5 -2.5
v 0 12.5 0
v 0 12.5 -2.5
v 0 15 0
v 0 15 -2.5
v 0 12.5 -5
v 0 15 -5
v -10 12.5 -7.5
v -10 15 -7.5
v -10 15 -5
v -10 10 -10
v -10 12.5 -10
v -9.641884 12.5 -10
v -9.641884 15 -10
v -9.641884 15 -7.5
v -9.641884 12.5 -7.5
v 0 12.5 -7.5
v 0 15 -7.5
v 0 12.5 -10
v 0 15 -10
v -10 17.2327 -2.5
v -10 17.2327 0
v -10 19.46539 -2.5
v -10 19.46539 0
v -10 17.2327 -5
v -9.641884 17.2327 -5
v -9.641884 19.46539 -5
v -9.641884 19.46539 -2.5
v -9.641884 17.2327 -2.5
v 0 17.2327 0
v 0 17.2327 -2.5
v 0 19.46539 0
v 0 19.46539 -2.5
v 0 17.2327 -5
v 0 19.46539 -5
v -10 17.2327 -7.5
v -10 19.46539 -7.5
v -10 19.46539 -5
v -10 15 -10
v -10 17.2327 -10
v -9.641884 17.2327 -10
v -9.641884 19.46539 -10
v -9.641884 19.46539 -7.5
v -9.641884 17.2327 -7.5
v 0 17.2327 -7.5
v 0 19.46539 -7.5
v 0 17.2327 -10
v 0 19.46539 -10
v -10 19.46539 -10
v -10 20 -5
v -7.5 20 -5
v -7.5 20 -2.5
v -10 20 -2.5
v -5 20 -5
v -5 20 -2.5
v -7.5 20 0
v -10 20 0
v -5 20 0
v -7.5 -90.1306 -2.5
v -7.5 -90.1306 -5
v -5 -90.1306 -2.5
v -5 -90.1306 -5
v -7.5 -90.1306 0
v -5 -90.1306 0
v -10 20 -10
v -7.5 20 -10
v -7.5 20 -7.5
v -10 20 -7.5
v -5 20 -10
v -5 20 -7.5
v -7.5 -90.1306 -7.5
v -7.5 -90.1306 -10
v -5 -90.1306 -7.5
v -5 -90.1306 -10
v -5 19.46539 0.5
v -7.5 19.46539 0.5
v -7.5 20 0.5
v -5 20 0.5
v -5 19.46539 -10.5
v -5 20 -10.5
v -7.5 20 -10.5
v -7.5 19.46539 -10.5
v -7.5 2.5 0
v -5 2.5 0
v -7.5 5 0
v -5 5 0
v -5 2.5 -10
v -7.5 2.5 -10
v -5 2.5 -9.537797
v -5 5 -9.537797
v -7.5 5 -9.537797
v -7.5 2.5 -9.537797
v -7.5 5 -10
v -7.5 7.5 0
v -5 7.5 0
v -7.5 10 0
v -5 10 0
v -5 5 -10
v -5 7.5 -10
v -7.5 7.5 -10
v -5 7.5 -9.537797
v -5 10 -9.537797
v -7.5 10 -9.537797
v -7.5 7.5 -9.537797
v -7.5 10 -10
v -7.5 12.5 0
v -5 12.5 0
v -7.5 15 0
v -5 15 0
v -5 10 -10
v -5 12.5 -10
v -7.5 12.5 -10
v -5 12.5 -9.537797
v -5 15 -9.537797
v -7.5 15 -9.537797
v -7.5 12.5 -9.537797
v -7.5 15 -10
v -7.5 17.2327 0
v -5 17.2327 0
v -7.5 19.46539 0
v -5 19.46539 0
v -5 15 -10
v -5 17.2327 -10
v -7.5 17.2327 -10
v -5 17.2327 -9.537797
v -5 19.46539 -9.537797
v -7.5 19.46539 -9.537797
v -7.5 17.2327 -9.537797
v -7.5 19.46539 -10
v -2.5 20 -5
v -2.5 20 -2.5
v 0 20 -5
v 0 20 -2.5
v -2.5 20 0
v 0 20 0
v -2.5 -90.1306 -2.5
v -2.5 -90.1306 -5
v -2.5 -90.1306 0
v -2.5 20 -10
v -2.5 20 -7.5
v 0 20 -10
v 0 20 -7.5
v -2.5 -90.1306 -7.5
v -2.5 -90.1306 -10
v -2.5 19.46539 0.5
v -2.5 20 0.5
v -2.5 20 -10.5
v -2.5 19.46539 -10.5
v -2.5 2.5 0
v -2.5 5 0
v -2.5 2.5 -10
v 0 2.5 -9.537797
v 0 5 -9.537797
v -2.5 5 -9.537797
v -2.5 2.5 -9.537797
v -2.5 5 -10
v -2.5 7.5 0
v -2.5 10 0
v -2.5 7.5 -10
v 0 7.5 -9.537797
v 0 10 -9.537797
v -2.5 10 -9.537797
v -2.5 7.5 -9.537797
v -2.5 10 -10
v -2.5 12.5 0
v -2.5 15 0
v -2.5 12.5 -10
v 0 12.5 -9.537797
v 0 15 -9.537797
v -2.5 15 -9.537797
v -2.5 12.5 -9.537797
v -2.5 15 -10
v -2.5 17.2327 0
v -2.5 19.46539 0
v -2.5 17.2327 -10
v 0 17.2327 -9.537797
v 0 19.46539 -9.537797
v -2.5 19.46539 -9.537797
v -2.5 17.2327 -9.537797
v -2.5 19.46539 -10
v -5 19.46539 -10
v -10 20.5 -7.5
v -10 20.5 -5
v -10.5 20.5 -7.5
v -10.5 20.5 -5
v -10 20.5 -2.5
v -10.5 20.5 -2.5
v -10 20.5 -10
v -10.5 20.5 -10.5
v -7.5 20.5 -10
v -7.5 20.5 -10.5
v -5 20.5 -10
v -5 20.5 -10.5
v -2.5 20.5 -10
v -2.5 20.5 -10.5
v 0 20.5 -10
v 0.5 20.5 -10.5
v 0 20.5 -7.5
v 0.5 20.5 -7.5
v 0 20.5 -5
v 0.5 20.5 -5
v 0 20.5 -2.5
v 0.5 20.5 -2.5
v -2.5 20.5 0
v 0 20.5 0
v -2.5 20.5 0.5
v 0.5 20.5 0.5
v -5 20.5 0
v -5 20.5 0.5
v -7.5 20.5 0
v -7.5 20.5 0.5
v -10 20.5 0
v -10.5 20.5 0.5

vt -2.5 19.46539
vt -2.5 20
vt 0.5 20
vt 0.5 19.46539
vt -5 19.46539
vt -5 20
vt -0.5 19.46539
vt -0.5 20
vt 2.5 20
vt 2.5 19.46539
vt 5 20
vt 5 19.46539
vt -7.5 19.46539
vt -7.5 20
vt -10.5 19.46539
vt -10.5 20
vt 7.5 20
vt 7.5 19.46539
vt 10.5 20
vt 10.5 19.46539
vt 0 -90.1306
vt -2.5 -90.1306
vt -2.5 2.5
vt 0 2.5
vt -2.5 5
vt 0 5
vt -5 -90.1306
vt -5 2.5
vt -5 5
vt 2.5 2.5
vt 2.5 -90.1306
vt 2.5 5
vt 5 2.5
vt 5 -90.1306
vt 5 5
vt -7.5 -90.1306
vt -7.5 2.5
vt -7.5 5
vt -10 -90.1306
vt -10 2.5
vt -10 5
vt 7.5 2.5
vt 7.5 -90.1306
vt 7.5 5
vt 10 2.5
vt 10 -90.1306
vt 10 5
vt -2.5 7.5
vt 0 7.5
vt -2.5 10
vt 0 10
vt -5 7.5
vt -5 10
vt 2.5 7.5
vt 2.5 10
vt 5 7.5
vt 5 10
vt -7.5 7.5
vt -7.5 10
vt -10 7.5
vt -10 10
vt 7.5 7.5
vt 7.5 10
vt 10 7.5
vt 10 10
vt -2.5 12.5
vt 0 12.5
vt -2.5 15
vt 0 15
vt -5 12.5
vt -5 15
vt 2.5 12.5
vt 2.5 15
vt 5 12.5
vt 5 15
vt -7.5 12.5
vt -7.5 15
vt -10 12.5
vt -10 15
vt 7.5 12.5
vt 7.5 15
vt 10 12.5
vt 10 15
vt -2.5 17.2327
vt 0 17.2327
vt 0 19.46539
vt -5 17.2327
vt 2.5 17.2327
vt 5 17.2327
vt -7.5 17.2327
vt -10 17.2327
vt -10 19.46539
vt 7.5 17.2327
vt 10 17.2327
vt 10 19.46539
vt 10 -7.5
vt 10 -10
vt 9.641884 -7.5
vt 9.641884 -10
vt -9.641884 17.2327
vt -9.641884 19.46539
vt 9.641884 19.46539
vt 9.641884 17.2327
vt -10 -10
vt -10 -7.5
vt -9.641884 -10
vt -9.641884 -7.5
vt -9.641884 12.5
vt -9.641884 15
vt 9.641884 15
vt 9.641884 12.5
vt -9.641884 7.5
vt -9.641884 10
vt 9.641884 10
vt 9.641884 7.5
vt -9.641884 2.5
vt -9.641884 5
vt 9.641884 5
vt 9.641884 2.5
vt 10 -2.5
vt 10 -5
vt 9.641884 -2.5
vt 9.641884 -5
vt -10 -5
vt -10 -2.5
vt -9.641884 -5
vt -9.641884 -2.5
vt 7.5 -5
vt 7.5 -2.5
vt 5 -5
vt 5 -2.5
vt 7.5 0
vt 10 0
vt 5 0
vt -7.5 -2.5
vt -7.5 -5
vt -5 -2.5
vt -5 -5
vt -10 0
vt -7.5 0
vt -5 0
vt 7.5 -10
vt 7.5 -7.5
vt 5 -10
vt 5 -7.5
vt -7.5 -7.5
vt -7.5 -10
vt -5 -7.5
vt -5 -10
vt 2.5 -5
vt 2.5 -2.5
vt 0 -5
vt 0 -2.5
vt 2.5 0
vt 0 0
vt -2.5 -2.5
vt -2.5 -5
vt -2.5 0
vt 2.5 -10
vt 2.5 -7.5
vt 0 -10
vt 0 -7.5
vt -2.5 -7.5
vt -2.5 -10
vt -9.537797 17.2327
vt -9.537797 19.46539
vt -5 -9.537797
vt -7.5 -9.537797
vt 9.537797 19.46539
vt 9.537797 17.2327
vt 7.5 -9.537797
vt 5 -9.537797
vt 0 -9.537797
vt -2.5 -9.537797
vt 2.5 -9.537797
vt -9.537797 12.5
vt -9.537797 15
vt 9.537797 15
vt 9.537797 12.5
vt -9.537797 7.5
vt -9.537797 10
vt 9.537797 10
vt 9.537797 7.5
vt -9.537797 2.5
vt -9.537797 5
vt 9.537797 5
vt 9.537797 2.5
vt -10.5 -2.5
vt -10.5 -5
vt 10.5 -7.5
vt 10.5 -5
vt 10.5 -2.5
vt -10.5 -7.5
vt 10.5 -10.5
vt -10.5 -10.5
vt -7.5 -10.5
vt -5 -10.5
vt 7.5 -10.5
vt -2.5 -10.5
vt 5 -10.5
vt 0.5 -10.5
vt 2.5 -10.5
vt 0.5 -7.5
vt -0.5 -10.5
vt 0.5 -5
vt -0.5 -7.5
vt 0.5 -2.5
vt -0.5 -5
vt 0.5 0.5
vt -0.5 -2.5
vt 2.5 0.5
vt -0.5 0.5
vt -2.5 0.5
vt 5 0.5
vt -5 0.5
vt 7.5 0.5
vt -7.5 0.5
vt 10.5 0.5
vt -10.5 0.5
vt 5 20.5
vt 2.5 20.5
vt -5 20.5
vt -7.5 20.5
vt -2.5 20.5
vt 0 20
vt 0 20.5
vt 0.5 20.5
vt -0.5 20.5
vt 7.5 20.5
vt -10 20
vt -10 20.5
vt 10.5 20.5
vt 10 20
vt 10 20.5
vt -10.5 20.5

vn -1 0 0
vn 1 0 9.934108E-09
vn 0 1 0
vn 0 0 1
vn 0 0 -1
vn 0 -1 0

usemtl Dark_Grey
f 24/24/1 23/23/1 22/22/1 21/21/1
f 26/26/1 25/25/1 23/23/1 24/24/1
f 23/23/1 28/28/1 27/27/1 22/22/1
f 36/31/2 35/30/2 34/24/2 33/21/2
f 35/30/2 38/32/2 37/26/2 34/24/2
f 40/34/2 39/33/2 35/30/2 36/31/2
f 39/33/2 41/35/2 38/32/2 35/30/2
f 28/28/1 43/37/1 42/36/1 27/27/1
f 45/29/1 44/38/1 43/37/1 28/28/1
f 43/37/1 47/40/1 46/39/1 42/36/1
f 53/43/2 52/42/2 39/33/2 40/34/2
f 52/42/2 54/44/2 41/35/2 39/33/2
f 56/46/2 55/45/2 52/42/2 53/43/2
f 55/45/2 57/47/2 54/44/2 52/42/2
f 59/49/1 58/48/1 25/25/1 26/26/1
f 61/51/1 60/50/1 58/48/1 59/49/1
f 58/48/1 62/52/1 45/29/1 25/25/1
f 38/32/2 68/54/2 67/49/2 37/26/2
f 68/54/2 70/55/2 69/51/2 67/49/2
f 41/35/2 71/56/2 68/54/2 38/32/2
f 71/56/2 72/57/2 70/55/2 68/54/2
f 62/52/1 73/58/1 44/38/1 45/29/1
f 75/53/1 74/59/1 73/58/1 62/52/1
f 73/58/1 77/60/1 76/41/1 44/38/1
f 54/44/2 82/62/2 71/56/2 41/35/2
f 82/62/2 83/63/2 72/57/2 71/56/2
f 57/47/2 84/64/2 82/62/2 54/44/2
f 84/64/2 85/65/2 83/63/2 82/62/2
f 87/67/1 86/66/1 60/50/1 61/51/1
f 89/69/1 88/68/1 86/66/1 87/67/1
f 86/66/1 90/70/1 75/53/1 60/50/1
f 70/55/2 96/72/2 95/67/2 69/51/2
f 96/72/2 98/73/2 97/69/2 95/67/2
f 72/57/2 99/74/2 96/72/2 70/55/2
f 99/74/2 100/75/2 98/73/2 96/72/2
f 90/70/1 101/76/1 74/59/1 75/53/1
f 103/71/1 102/77/1 101/76/1 90/70/1
f 101/76/1 105/78/1 104/61/1 74/59/1
f 83/63/2 110/80/2 99/74/2 72/57/2
f 110/80/2 111/81/2 100/75/2 99/74/2
f 85/65/2 112/82/2 110/80/2 83/63/2
f 112/82/2 113/83/2 111/81/2 110/80/2
f 115/85/1 114/84/1 88/68/1 89/69/1
f 117/86/1 116/1/1 114/84/1 115/85/1
f 114/84/1 118/87/1 103/71/1 88/68/1
f 98/73/2 124/88/2 123/85/2 97/69/2
f 124/88/2 126/10/2 125/86/2 123/85/2
f 100/75/2 127/89/2 124/88/2 98/73/2
f 127/89/2 128/12/2 126/10/2 124/88/2
f 118/87/1 129/90/1 102/77/1 103/71/1
f 131/5/1 130/13/1 129/90/1 118/87/1
f 129/90/1 133/91/1 132/79/1 102/77/1
f 111/81/2 138/93/2 127/89/2 100/75/2
f 138/93/2 139/18/2 128/12/2 127/89/2
f 113/83/2 140/94/2 138/93/2 111/81/2
f 140/94/2 141/95/2 139/18/2 138/93/2
f 137/98/3 134/99/3 133/97/3 129/96/3
f 134/100/4 135/101/4 142/92/4 133/91/4
f 136/102/5 137/103/5 129/94/5 130/95/5
f 135/106/6 136/107/6 130/105/6 142/104/6
f 109/98/3 106/99/3 105/97/3 101/96/3
f 106/108/4 107/109/4 132/79/4 105/78/4
f 108/110/5 109/111/5 101/82/5 102/83/5
f 107/106/6 108/107/6 102/105/6 132/104/6
f 81/98/3 78/99/3 77/97/3 73/96/3
f 78/112/4 79/113/4 104/61/4 77/60/4
f 80/114/5 81/115/5 73/64/5 74/65/5
f 79/106/6 80/107/6 74/105/6 104/104/6
f 51/98/3 48/99/3 47/97/3 43/96/3
f 48/116/4 49/117/4 76/41/4 47/40/4
f 50/118/5 51/119/5 43/45/5 44/47/5
f 49/106/6 50/107/6 44/105/6 76/104/6
f 122/122/3 119/123/3 118/121/3 114/120/3
f 119/100/4 120/101/4 131/92/4 118/91/4
f 121/102/5 122/103/5 114/94/5 116/95/5
f 120/126/6 121/127/6 116/125/6 131/124/6
f 94/122/3 91/123/3 90/121/3 86/120/3
f 91/108/4 92/109/4 103/79/4 90/78/4
f 93/110/5 94/111/5 86/82/5 88/83/5
f 92/126/6 93/127/6 88/125/6 103/124/6
f 66/122/3 63/123/3 62/121/3 58/120/3
f 63/112/4 64/113/4 75/61/4 62/60/4
f 65/114/5 66/115/5 58/64/5 60/65/5
f 64/126/6 65/127/6 60/125/6 75/124/6
f 32/122/3 29/123/3 28/121/3 23/120/3
f 29/116/4 30/117/4 45/41/4 28/40/4
f 31/118/5 32/119/5 23/45/5 25/47/5
f 30/126/6 31/127/6 25/125/6 45/124/6
f 146/120/3 145/129/3 144/128/3 143/121/3
f 145/129/3 148/131/3 147/130/3 144/128/3
f 150/133/3 149/132/3 145/129/3 146/120/3
f 149/132/3 151/134/3 148/131/3 145/129/3
f 153/136/6 152/135/6 22/125/6 27/124/6
f 155/138/6 154/137/6 152/135/6 153/136/6
f 152/135/6 156/140/6 21/139/6 22/125/6
f 154/137/6 157/141/6 156/140/6 152/135/6
f 161/96/3 160/143/3 159/142/3 158/97/3
f 160/143/3 163/145/3 162/144/3 159/142/3
f 143/121/3 144/128/3 160/143/3 161/96/3
f 144/128/3 147/130/3 163/145/3 160/143/3
f 165/147/6 164/146/6 42/105/6 46/104/6
f 167/149/6 166/148/6 164/146/6 165/147/6
f 164/146/6 153/136/6 27/124/6 42/105/6
f 166/148/6 155/138/6 153/136/6 164/146/6
f 177/28/4 176/37/4 156/36/4 157/27/4
f 176/37/4 24/40/4 21/39/4 156/36/4
f 179/29/4 178/38/4 176/37/4 177/28/4
f 178/38/4 26/41/4 24/40/4 176/37/4
f 165/43/5 181/42/5 180/33/5 167/34/5
f 46/46/5 47/45/5 181/42/5 165/43/5
f 47/45/5 76/47/5 186/44/5 181/42/5
f 188/52/4 187/58/4 178/38/4 179/29/4
f 187/58/4 59/60/4 26/41/4 178/38/4
f 190/53/4 189/59/4 187/58/4 188/52/4
f 189/59/4 61/61/4 59/60/4 187/58/4
f 186/44/5 193/62/5 192/56/5 191/35/5
f 76/47/5 77/64/5 193/62/5 186/44/5
f 77/64/5 104/65/5 198/63/5 193/62/5
f 200/70/4 199/76/4 189/59/4 190/53/4
f 199/76/4 87/78/4 61/61/4 189/59/4
f 202/71/4 201/77/4 199/76/4 200/70/4
f 201/77/4 89/79/4 87/78/4 199/76/4
f 198/63/5 205/80/5 204/74/5 203/57/5
f 104/65/5 105/82/5 205/80/5 198/63/5
f 105/82/5 132/83/5 210/81/5 205/80/5
f 212/87/4 211/90/4 201/77/4 202/71/4
f 211/90/4 115/91/4 89/79/4 201/77/4
f 214/5/4 213/13/4 211/90/4 212/87/4
f 213/13/4 117/92/4 115/91/4 211/90/4
f 210/81/5 217/93/5 216/89/5 215/75/5
f 132/83/5 133/94/5 217/93/5 210/81/5
f 133/94/5 142/95/5 222/18/5 217/93/5
f 148/131/3 224/151/3 223/150/3 147/130/3
f 224/151/3 226/153/3 225/152/3 223/150/3
f 151/134/3 227/154/3 224/151/3 148/131/3
f 227/154/3 228/155/3 226/153/3 224/151/3
f 230/157/6 229/156/6 154/137/6 155/138/6
f 40/152/6 36/153/6 229/156/6 230/157/6
f 229/156/6 231/158/6 157/141/6 154/137/6
f 36/153/6 33/155/6 231/158/6 229/156/6
f 163/145/3 233/160/3 232/159/3 162/144/3
f 233/160/3 235/162/3 234/161/3 232/159/3
f 147/130/3 223/150/3 233/160/3 163/145/3
f 223/150/3 225/152/3 235/162/3 233/160/3
f 237/164/6 236/163/6 166/148/6 167/149/6
f 56/161/6 53/162/6 236/163/6 237/164/6
f 236/163/6 230/157/6 155/138/6 166/148/6
f 53/162/6 40/152/6 230/157/6 236/163/6
f 34/24/4 242/23/4 231/22/4 33/21/4
f 242/23/4 177/28/4 157/27/4 231/22/4
f 37/26/4 243/25/4 242/23/4 34/24/4
f 243/25/4 179/29/4 177/28/4 242/23/4
f 237/31/5 244/30/5 55/24/5 56/21/5
f 167/34/5 180/33/5 244/30/5 237/31/5
f 180/33/5 191/35/5 249/32/5 244/30/5
f 67/49/4 250/48/4 243/25/4 37/26/4
f 250/48/4 188/52/4 179/29/4 243/25/4
f 69/51/4 251/50/4 250/48/4 67/49/4
f 251/50/4 190/53/4 188/52/4 250/48/4
f 249/32/5 252/54/5 84/49/5 57/26/5
f 191/35/5 192/56/5 252/54/5 249/32/5
f 192/56/5 203/57/5 257/55/5 252/54/5
f 95/67/4 258/66/4 251/50/4 69/51/4
f 258/66/4 200/70/4 190/53/4 251/50/4
f 97/69/4 259/68/4 258/66/4 95/67/4
f 259/68/4 202/71/4 200/70/4 258/66/4
f 257/55/5 260/72/5 112/67/5 85/51/5
f 203/57/5 204/74/5 260/72/5 257/55/5
f 204/74/5 215/75/5 265/73/5 260/72/5
f 123/85/4 266/84/4 259/68/4 97/69/4
f 266/84/4 212/87/4 202/71/4 259/68/4
f 125/86/4 267/1/4 266/84/4 123/85/4
f 267/1/4 214/5/4 212/87/4 266/84/4
f 265/73/5 268/88/5 140/85/5 113/69/5
f 215/75/5 216/89/5 268/88/5 265/73/5
f 216/89/5 274/12/5 273/10/5 268/88/5
f 218/165/1 219/166/1 274/92/1 216/91/1
f 219/167/6 220/168/6 222/147/6 274/149/6
f 220/169/2 221/170/2 217/94/2 222/95/2
f 221/171/3 218/172/3 216/144/3 217/142/3
f 269/165/1 270/166/1 141/92/1 140/91/1
f 270/173/6 271/174/6 273/164/6 141/161/6
f 271/169/2 272/170/2 268/94/2 273/95/2
f 272/175/3 269/173/3 140/161/3 268/159/3
f 206/176/1 207/177/1 215/79/1 204/78/1
f 207/167/6 208/168/6 210/147/6 215/149/6
f 208/178/2 209/179/2 205/82/2 210/83/2
f 209/171/3 206/172/3 204/144/3 205/142/3
f 261/176/1 262/177/1 113/79/1 112/78/1
f 262/173/6 263/174/6 265/164/6 113/161/6
f 263/178/2 264/179/2 260/82/2 265/83/2
f 264/175/3 261/173/3 112/161/3 260/159/3
f 194/180/1 195/181/1 203/61/1 192/60/1
f 195/167/6 196/168/6 198/147/6 203/149/6
f 196/182/2 197/183/2 193/64/2 198/65/2
f 197/171/3 194/172/3 192/144/3 193/142/3
f 253/180/1 254/181/1 85/61/1 84/60/1
f 254/173/6 255/174/6 257/164/6 85/161/6
f 255/182/2 256/183/2 252/64/2 257/65/2
f 256/175/3 253/173/3 84/161/3 252/159/3
f 245/184/1 246/185/1 57/41/1 55/40/1
f 246/173/6 247/174/6 249/164/6 57/161/6
f 247/186/2 248/187/2 244/45/2 249/47/2
f 248/175/3 245/173/3 55/161/3 244/159/3
f 182/184/1 183/185/1 191/41/1 180/40/1
f 183/167/6 184/168/6 186/147/6 191/149/6
f 184/186/2 185/187/2 181/45/2 186/47/2
f 185/171/3 182/172/3 180/144/3 181/142/3
f 1/188/6 5/189/6 131/124/6 116/125/6
f 5/189/6 13/193/6 130/105/6 131/124/6
f 13/193/6 15/195/6 142/104/6 130/105/6
f 15/195/6 175/196/6 222/147/6 142/104/6
f 175/196/6 172/197/6 274/149/6 222/147/6
f 172/197/6 241/199/6 273/164/6 274/149/6
f 241/199/6 20/201/6 141/161/6 273/164/6
f 20/201/6 18/203/6 139/162/6 141/161/6
f 18/203/6 12/205/6 128/152/6 139/162/6
f 12/205/6 10/207/6 126/153/6 128/152/6
f 10/207/6 7/209/6 125/155/6 126/153/6
f 7/209/6 238/213/6 267/158/6 125/155/6
f 238/213/6 168/215/6 214/141/6 267/158/6
f 168/215/6 169/217/6 213/140/6 214/141/6
f 169/217/6 4/219/6 117/139/6 213/140/6
f 4/219/6 1/188/6 116/125/6 117/139/6
f 301/220/5 297/221/5 227/9/5 151/11/5
f 297/221/5 298/226/5 228/225/5 227/9/5
f 298/226/1 295/224/1 226/2/1 228/225/1
f 295/224/1 293/222/1 225/6/1 226/2/1
f 293/222/1 291/223/1 235/14/1 225/6/1
f 291/223/1 289/231/1 234/230/1 235/14/1
f 289/226/4 287/224/4 232/2/4 234/225/4
f 287/224/4 285/222/4 162/6/4 232/2/4
f 285/222/4 283/223/4 159/14/4 162/6/4
f 283/223/4 281/231/4 158/230/4 159/14/4
f 281/234/2 275/229/2 161/17/2 158/233/2
f 275/229/2 276/220/2 143/11/2 161/17/2
f 276/220/2 279/221/2 146/9/2 143/11/2
f 279/221/2 305/226/2 150/225/2 146/9/2
f 305/234/5 303/229/5 149/17/5 150/233/5
f 303/229/5 301/220/5 151/11/5 149/17/5

usemtl Grey
f 31/25/1 30/29/1 29/28/1 32/23/1
f 50/38/1 49/41/1 48/40/1 51/37/1
f 65/50/1 64/53/1 63/52/1 66/48/1
f 80/59/1 79/61/1 78/60/1 81/58/1
f 93/68/1 92/71/1 91/70/1 94/66/1
f 108/77/1 107/79/1 106/78/1 109/76/1
f 121/1/1 120/5/1 119/87/1 122/84/1
f 136/13/1 135/92/1 134/91/1 137/90/1
f 185/42/5 184/44/5 183/35/5 182/33/5
f 197/62/5 196/63/5 195/57/5 194/56/5
f 209/80/5 208/81/5 207/75/5 206/74/5
f 221/93/5 220/18/5 219/12/5 218/89/5
f 248/30/5 247/32/5 246/26/5 245/24/5
f 256/54/5 255/55/5 254/51/5 253/49/5
f 264/72/5 263/73/5 262/69/5 261/67/5
f 272/88/5 271/10/5 270/86/5 269/85/5

usemtl Black
f 3/3/1 2/2/1 1/1/1 4/4/1
f 2/2/1 6/6/1 5/5/1 1/1/1
f 10/10/2 9/9/2 8/8/2 7/7/2
f 12/12/2 11/11/2 9/9/2 10/10/2
f 6/6/1 14/14/1 13/13/1 5/5/1
f 14/14/1 16/16/1 15/15/1 13/13/1
f 18/18/2 17/17/2 11/11/2 12/12/2
f 20/20/2 19/19/2 17/17/2 18/18/2
f 171/6/4 170/14/4 169/13/4 168/5/4
f 170/14/4 3/16/4 4/15/4 169/13/4
f 175/18/5 174/17/5 173/11/5 172/12/5
f 15/20/5 16/19/5 174/17/5 175/18/5
f 8/3/4 239/2/4 238/1/4 7/4/4
f 239/2/4 171/6/4 168/5/4 238/1/4
f 241/10/5 240/9/5 19/8/5 20/7/5
f 172/12/5 173/11/5 240/9/5 241/10/5
f 277/190/3 278/191/3 276/121/3 275/96/3
f 278/191/3 280/192/3 279/120/3 276/121/3
f 282/194/3 277/190/3 275/96/3 281/97/3
f 284/198/3 282/194/3 281/97/3 283/142/3
f 286/200/3 284/198/3 283/142/3 285/144/3
f 288/202/3 286/200/3 285/144/3 287/159/3
f 290/204/3 288/202/3 287/159/3 289/161/3
f 292/206/3 290/204/3 289/161/3 291/162/3
f 294/208/3 292/206/3 291/162/3 293/152/3
f 296/210/3 294/208/3 293/152/3 295/153/3
f 299/211/3 300/212/3 298/155/3 297/154/3
f 300/212/3 296/210/3 295/153/3 298/155/3
f 302/214/3 299/211/3 297/154/3 301/134/3
f 304/216/3 302/214/3 301/134/3 303/132/3
f 306/218/3 304/216/3 303/132/3 305/133/3
f 280/192/3 306/218/3 305/133/3 279/120/3
f 302/222/4 304/223/4 170/14/4 171/6/4
f 299/224/4 302/222/4 171/6/4 239/2/4
f 300/227/4 299/224/4 239/2/4 8/3/4
f 296/221/2 300/228/2 8/8/2 9/9/2
f 294/220/2 296/221/2 9/9/2 11/11/2
f 292/229/2 294/220/2 11/11/2 17/17/2
f 290/232/2 292/229/2 17/17/2 19/19/2
f 288/221/5 290/228/5 19/8/5 240/9/5
f 286/220/5 288/221/5 240/9/5 173/11/5
f 284/229/5 286/220/5 173/11/5 174/17/5
f 282/232/5 284/229/5 174/17/5 16/19/5
f 277/223/1 282/235/1 16/16/1 14/14/1
f 278/222/1 277/223/1 14/14/1 6/6/1
f 280/224/1 278/222/1 6/6/1 2/2/1
f 306/227/1 280/224/1 2/2/1 3/3/1
f 304/223/4 306/235/4 3/16/4 170/14/4

