# Blender v2.91.0 OBJ File: ''
# www.blender.org
mtllib LowPolyBall.mtl
o Sphere
v -0.218405 0.942842 -0.317146
v -0.321402 0.324472 -0.915838
v 0.099523 -0.000001 -1.010496
v 0.184833 0.900344 -0.429044
v 0.090699 -0.599043 -0.824769
v 0.471786 -0.181749 -0.882650
v 0.439727 0.605126 -0.715294
v 0.647428 0.271541 -0.744618
v 0.562324 -0.555042 -0.648105
v 0.182749 -0.909597 -0.430728
v 0.824564 -0.134853 -0.574418
v 0.013255 -1.001765 -0.134579
v 0.949371 0.206501 -0.297871
v 0.350930 0.944444 -0.189850
v 1.011551 -0.098229 0.089556
v 0.891204 -0.494810 -0.097219
v 0.765739 0.691699 0.047114
v 0.937913 0.302695 0.287052
v 0.561009 -0.859551 -0.067263
v 0.796055 -0.276340 0.583153
v 0.616770 -0.656726 0.466867
v 0.536545 0.499734 0.706142
v 0.218576 -0.507282 0.855977
v 0.330811 0.868611 0.444585
v 0.499705 0.021455 0.896736
v 0.231649 -0.952664 0.280133
v 0.079864 0.395697 0.934097
v 0.009370 -0.096775 1.008622
v -0.230818 0.676444 0.717652
v 0.018326 -0.760094 0.675386
v -0.410482 -0.311945 0.895952
v -0.040887 1.003959 0.120071
v -0.433863 0.412494 0.837370
v -0.562735 -0.678889 0.541589
v -0.310332 0.923290 0.320893
v -0.759100 0.586728 0.361253
v -0.902941 0.035763 0.501304
v -0.921502 -0.393093 0.198452
v -0.541159 -0.853842 0.122168
v -0.157678 -0.974675 0.227068
v -0.771720 0.669153 -0.172509
v -1.006047 -0.074136 -0.239944
v -0.661620 -0.392868 -0.667986
v -0.680236 0.577305 -0.491167
v -0.845024 0.007266 -0.575032
v -0.653832 -0.721133 -0.297473
v -0.323670 -0.904344 -0.322111
v -0.223591 0.647849 -0.754082
v -0.341234 -0.076999 -0.952003
v -0.312337 -0.575961 -0.780006
vt 0.797448 0.715726
vt 0.661953 0.703837
vt 0.804285 0.596594
vt 0.846846 0.874295
vt 0.734375 1.000000
vt 0.572158 0.866193
vt 0.681915 0.849900
vt 0.635334 0.588019
vt 0.734375 0.500176
vt 0.671875 0.444675
vt 0.597860 0.459741
vt 0.547374 0.564303
vt 0.516597 0.343624
vt 0.633507 0.317235
vt 0.490178 0.721497
vt 0.486135 0.468853
vt 0.452981 0.593425
vt 0.730366 0.048064
vt 0.505027 0.196812
vt 0.349433 0.116762
vt 0.400868 0.418333
vt 0.396528 0.279472
vt 0.352569 0.658936
vt 0.330856 0.509424
vt 0.289311 0.340105
vt 0.253091 0.229524
vt 0.352620 0.815540
vt 0.265149 0.625956
vt 0.251279 0.467960
vt 0.255021 0.951399
vt 0.128188 0.846890
vt 0.133051 0.092964
vt 0.185728 0.401903
vt 0.170431 0.616673
vt 0.203125 0.000000
vt 0.123216 0.273583
vt 0.200996 0.728959
vt 0.070316 0.695143
vt 0.082812 0.514485
vt 0.030787 0.376397
vt 1.000000 0.875000
vt 0.966979 0.972292
vt 1.000000 0.334687
vt 0.970796 0.481228
vt 0.932123 0.252895
vt 0.996354 0.174786
vt 0.874846 0.146677
vt 0.900162 0.027657
vt 0.986986 0.062500
vt 0.903807 0.498709
vt 0.875212 0.375695
vt 0.803797 0.476875
vt 0.896783 0.692686
vt 0.813929 0.311130
vt 0.733717 0.301268
vt 0.683873 0.154626
vt 0.000000 0.725079
vt 0.000000 0.479867
vt 0.038529 0.186427
vt 0.966233 0.724147
vn -0.1845 0.6408 -0.7452
vn 0.4225 0.5849 -0.6923
vn -0.3066 0.3210 -0.8961
vn -0.2447 0.9220 -0.3000
vn -0.0251 0.9945 0.1017
vn 0.3722 0.9126 -0.1693
vn 0.1541 0.8748 -0.4594
vn 0.6355 0.2889 -0.7159
vn 0.1003 0.0252 -0.9946
vn 0.4489 -0.1683 -0.8776
vn 0.8300 -0.1523 -0.5365
vn 0.9252 0.2340 -0.2988
vn 0.8732 -0.4774 -0.0980
vn 0.5659 -0.5567 -0.6081
vn 0.7435 0.6686 0.0146
vn 0.9901 -0.1146 0.0816
vn 0.9014 0.2933 0.3186
vn 0.0080 -0.9933 -0.1151
vn 0.5557 -0.8282 -0.0725
vn 0.2435 -0.9253 0.2908
vn 0.7824 -0.2544 0.5684
vn 0.6078 -0.6480 0.4589
vn 0.5472 0.4851 0.6821
vn 0.5089 0.0193 0.8606
vn 0.2351 -0.4892 0.8399
vn 0.0082 -0.7503 0.6610
vn 0.3169 0.8372 0.4456
vn 0.0833 0.3974 0.9138
vn -0.0070 -0.0794 0.9968
vn -0.3233 0.8943 0.3092
vn -0.1729 -0.9568 0.2338
vn -0.4147 -0.2784 0.8663
vn -0.4485 0.3558 0.8198
vn -0.5495 -0.6409 0.5360
vn -0.1957 0.7019 0.6848
vn -0.7659 0.5483 0.3358
vn -0.8776 0.0493 0.4768
vn -0.9003 -0.3938 0.1854
vn -0.9806 -0.0478 -0.1901
vn -0.6769 -0.6755 -0.2922
vn -0.5438 -0.8325 0.1054
vn -0.3034 -0.8891 -0.3427
vn -0.8042 0.0558 -0.5917
vn -0.6625 -0.3841 -0.6431
vn -0.3479 -0.1006 -0.9321
vn -0.6675 0.5333 -0.5196
vn -0.2887 -0.5728 -0.7671
vn 0.0755 -0.5759 -0.8140
vn 0.1785 -0.8787 -0.4427
vn -0.7694 0.6254 -0.1299
usemtl None
s 1
f 48/1/1 7/2/2 2/3/3
f 1/4/4 32/5/5 14/6/6
f 4/7/7 7/2/2 48/1/1
f 7/2/2 8/8/8 3/9/9
f 6/10/10 8/8/8 11/11/11
f 8/8/8 13/12/12 11/11/11
f 11/11/11 16/13/13 9/14/14
f 14/6/6 17/15/15 7/2/2
f 13/12/12 15/16/16 11/11/11
f 17/15/15 18/17/17 13/12/12
f 12/18/18 19/19/19 26/20/20
f 15/16/16 20/21/21 16/13/13
f 16/13/13 20/21/21 21/22/22
f 16/13/13 21/22/22 19/19/19
f 19/19/19 21/22/22 26/20/20
f 18/17/17 20/21/21 15/16/16
f 18/17/17 22/23/23 25/24/24
f 18/17/17 25/24/24 20/21/21
f 21/22/22 20/21/21 23/25/25
f 25/24/24 23/25/25 20/21/21
f 23/25/25 30/26/26 21/22/22
f 24/27/27 27/28/28 22/23/23
f 27/28/28 28/29/29 25/24/24
f 32/30/5 35/31/30 24/27/27
f 30/26/26 40/32/31 26/20/20
f 28/29/29 31/33/32 23/25/25
f 33/34/33 31/33/32 28/29/29
f 12/35/18 26/20/20 40/32/31
f 31/33/32 34/36/34 30/26/26
f 29/37/35 35/31/30 36/38/36
f 37/39/37 38/40/38 34/36/34
f 35/41/30 32/42/5 1/4/4
f 38/43/38 42/44/39 46/45/40
f 38/43/38 46/45/40 39/46/41
f 47/47/42 12/48/18 40/49/31
f 45/50/43 43/51/44 42/44/39
f 45/50/43 2/3/3 49/52/45
f 1/4/4 48/1/1 44/53/46
f 43/51/44 50/54/47 46/45/40
f 2/3/3 7/2/2 3/9/9
f 1/4/4 14/6/6 4/7/7
f 5/55/48 6/10/10 9/14/14
f 3/9/9 8/8/8 6/10/10
f 5/55/48 3/9/9 6/10/10
f 4/7/7 14/6/6 7/2/2
f 5/55/48 9/14/14 10/56/49
f 6/10/10 11/11/11 9/14/14
f 10/56/49 9/14/14 19/19/19
f 19/19/19 9/14/14 16/13/13
f 41/57/50 42/58/39 37/39/37 36/38/36
f 11/11/11 15/16/16 16/13/13
f 12/18/18 10/56/49 19/19/19
f 13/12/12 18/17/17 15/16/16
f 14/6/6 24/27/27 17/15/15
f 14/6/6 32/30/5 24/27/27
f 17/15/15 22/23/23 18/17/17
f 17/15/15 24/27/27 22/23/23
f 26/20/20 21/22/22 30/26/26
f 25/24/24 22/23/23 27/28/28
f 25/24/24 28/29/29 23/25/25
f 24/27/27 29/37/35 27/28/28
f 29/37/35 24/27/27 35/31/30
f 23/25/25 31/33/32 30/26/26
f 27/28/28 29/37/35 33/34/33
f 27/28/28 33/34/33 28/29/29
f 40/32/31 30/26/26 34/36/34
f 31/33/32 37/39/37 34/36/34
f 33/34/33 29/37/35 36/38/36
f 31/33/32 33/34/33 37/39/37
f 40/32/31 34/36/34 39/59/41
f 37/39/37 33/34/33 36/38/36
f 34/36/34 38/40/38 39/59/41
f 36/38/36 35/31/30 41/57/50
f 44/53/46 45/50/43 42/44/39 41/60/50
f 38/40/38 37/39/37 42/58/39
f 39/46/41 47/47/42 40/49/31
f 35/41/30 1/4/4 41/60/50
f 13/12/12 8/8/8 7/2/2 17/15/15
f 47/47/42 39/46/41 46/45/40
f 10/56/49 47/47/42 50/54/47 5/55/48
f 46/45/40 42/44/39 43/51/44
f 41/60/50 1/4/4 44/53/46
f 45/50/43 49/52/45 43/51/44
f 47/47/42 46/45/40 50/54/47
f 44/53/46 48/1/1 2/3/3
f 45/50/43 44/53/46 2/3/3
f 43/51/44 49/52/45 50/54/47
f 5/55/48 50/54/47 49/52/45 3/9/9
f 12/48/18 47/47/42 10/56/49
f 49/52/45 2/3/3 3/9/9
f 48/1/1 1/4/4 4/7/7
